<svg id="visual" viewBox="0 0 960 540" width="960" height="540" xmlns="http://www.w3.org/2000/svg" xmlns:xlink="http://www.w3.org/1999/xlink" version="1.1"><rect x="0" y="0" width="960" height="540" fill="#1475d5"></rect><path d="M0 342L107 296L213 294L320 332L427 288L533 291L640 320L747 292L853 317L960 347L960 541L853 541L747 541L640 541L533 541L427 541L320 541L213 541L107 541L0 541Z" fill="#ec964f"></path><path d="M0 315L107 316L213 373L320 381L427 370L533 341L640 318L747 322L853 365L960 339L960 541L853 541L747 541L640 541L533 541L427 541L320 541L213 541L107 541L0 541Z" fill="#df8649"></path><path d="M0 368L107 402L213 407L320 373L427 358L533 353L640 355L747 379L853 362L960 370L960 541L853 541L747 541L640 541L533 541L427 541L320 541L213 541L107 541L0 541Z" fill="#d17643"></path><path d="M0 433L107 423L213 407L320 414L427 430L533 408L640 412L747 431L853 407L960 382L960 541L853 541L747 541L640 541L533 541L427 541L320 541L213 541L107 541L0 541Z" fill="#c3673d"></path><path d="M0 427L107 419L213 437L320 448L427 446L533 415L640 436L747 424L853 428L960 440L960 541L853 541L747 541L640 541L533 541L427 541L320 541L213 541L107 541L0 541Z" fill="#b55837"></path><path d="M0 482L107 481L213 463L320 481L427 462L533 456L640 475L747 470L853 481L960 468L960 541L853 541L747 541L640 541L533 541L427 541L320 541L213 541L107 541L0 541Z" fill="#a64a32"></path><path d="M0 512L107 497L213 507L320 509L427 514L533 515L640 484L747 504L853 486L960 503L960 541L853 541L747 541L640 541L533 541L427 541L320 541L213 541L107 541L0 541Z" fill="#973c2c"></path></svg>