<svg id="visual" viewBox="0 0 960 540" width="960" height="540" xmlns="http://www.w3.org/2000/svg" xmlns:xlink="http://www.w3.org/1999/xlink" version="1.1"><rect x="0" y="0" width="960" height="540" fill="#CCCCCC"></rect><path d="M0 476L17.8 459.5C35.7 443 71.3 410 106.8 400.5C142.3 391 177.7 405 213.2 423.2C248.7 441.3 284.3 463.7 320 469.3C355.7 475 391.3 464 426.8 452.3C462.3 440.7 497.7 428.3 533.2 418C568.7 407.7 604.3 399.3 640 407.7C675.7 416 711.3 441 746.8 449.2C782.3 457.3 817.7 448.7 853.2 450.3C888.7 452 924.3 464 942.2 470L960 476L960 541L942.2 541C924.3 541 888.7 541 853.2 541C817.7 541 782.3 541 746.8 541C711.3 541 675.7 541 640 541C604.3 541 568.7 541 533.2 541C497.7 541 462.3 541 426.8 541C391.3 541 355.7 541 320 541C284.3 541 248.7 541 213.2 541C177.7 541 142.3 541 106.8 541C71.3 541 35.7 541 17.8 541L0 541Z" fill="#FCAF3C" stroke-linecap="round" stroke-linejoin="miter"></path></svg>